<svg width="17" height="17" viewBox="0 0 17 17" fill="none" xmlns="http://www.w3.org/2000/svg">
<path d="M3.30078 9.14453C4.10286 9.94661 5.07682 10.3477 6.22266 10.3477C7.36849 10.3477 8.34245 9.94661 9.14453 9.14453C9.94661 8.34245 10.3477 7.36849 10.3477 6.22266C10.3477 5.07682 9.94661 4.10286 9.14453 3.30078C8.34245 2.4987 7.36849 2.09766 6.22266 2.09766C5.07682 2.09766 4.10286 2.4987 3.30078 3.30078C2.4987 4.10286 2.09766 5.07682 2.09766 6.22266C2.09766 7.36849 2.4987 8.34245 3.30078 9.14453ZM11.7227 10.3477L16.2773 14.9023L14.9023 16.2773L10.3477 11.7227V10.9922L10.0898 10.7344C9.0013 11.6797 7.71224 12.1523 6.22266 12.1523C4.5612 12.1523 3.14323 11.5794 1.96875 10.4336C0.822917 9.28776 0.25 7.88411 0.25 6.22266C0.25 4.5612 0.822917 3.15755 1.96875 2.01172C3.14323 0.83724 4.5612 0.25 6.22266 0.25C7.88411 0.25 9.28776 0.83724 10.4336 2.01172C11.5794 3.15755 12.1523 4.5612 12.1523 6.22266C12.1523 6.82422 12.0091 7.51172 11.7227 8.28516C11.4362 9.02995 11.1068 9.63151 10.7344 10.0898L10.9922 10.3477H11.7227Z" fill="#FFFAF3"/>
</svg>
